<svg viewBox="0 0 64 64" xmlns="http://www.w3.org/2000/svg" >
<path d="m 52.310325,57.506518 -0.827241,1.887951 c -0.255799,0.535994 -0.576601,1.291261 -2.675918,1.648593 -2.099309,0.357317 -7.970374,0.873706 -10.072136,0.908157 -2.101761,0.0344 -6.201912,0.126311 -10.956711,-0.09188 C 23.02352,61.641108 11.630373,60.527073 11.630373,60.527073 l -0.03439,-2.342945 0.31011,-0.287131 21.844522,-0.06894 2.779372,-1.59642 c 0,0 7.683479,0.160781 9.360293,0.321563 1.676815,0.160781 6.178945,0.436437 6.408642,0.505338 0.229682,0.06893 0.01133,0.447927 0.01133,0.447927 z" />
<path d="m 36.228432,1.9999992 c 0,0 -5.057683,5.7673353 -9.260656,12.9962258 -4.202972,7.229042 -6.526956,13.117655 -8.062246,18.229695 -1.53514,5.112033 -4.423275,17.179062 -4.661896,20.353814 l 22.583922,0.173972 0.310073,-4.635854 -0.422284,-46.7040472 z" />
<path d="M 51.523374,56.738934 33.309426,54.578928 c 0,0 2.317471,-13.879094 2.551553,-15.267065 0.233916,-1.387968 2.829085,-16.699243 2.829085,-16.699243 z" />
</svg>
