<?xml version="1.0"?>
<svg xmlns="http://www.w3.org/2000/svg" width="420" height="80" viewBox="0 0 210 40" >
<path class="boat-hull-side" stroke="black" stroke-width=".1" d="m 5.5092014,12.116856 4.0522831,9.248159 c 1.2531195,2.625594 2.8244915,6.325273 13.1080235,8.075669 10.283533,1.750396 39.043057,4.279855 49.338568,4.448639 10.295511,0.168671 30.380194,0.618826 53.671674,-0.450079 23.29148,-1.068943 79.10103,-6.526128 79.10103,-6.526128 l 0.16878,-11.47696 -1.51901,-1.406474 L 96.424743,13.691962 82.809925,5.8718713 c 0,0 -37.637689,0.787648 -45.851595,1.575258 -8.213907,0.787648 -30.2676765,2.137885 -31.3928685,2.475416 -1.1251929,0.3377197 -0.056263,2.1941587 -0.056263,2.1941587 z" />
<path class="boat-hull-bottom" stroke="black" stroke-width=".1" d="m 12.408278,25.462471 c 1.805145,1.573593 4.808208,3.050069 10.261219,3.978213 10.283533,1.750396 39.043011,4.279817 49.338522,4.448563 10.295507,0.168671 30.380311,0.619053 53.671791,-0.44989 23.29148,-1.068942 79.10097,-6.526241 79.10097,-6.526241 l 0.0212,-1.450645 z" />
<path class="boat-hull-top" stroke="black" stroke-width=".1" d="m 82.809717,5.8719093 c 0,0 -37.63764,0.787875 -45.851545,1.575523 -8.213908,0.787648 -30.2676161,2.137771 -31.3928104,2.47534 -1.125186,0.3377197 -0.05613,2.1942727 -0.05613,2.1942727 l 0.2362641,0.539104 c 16.1139093,0.680319 60.7615743,2.541258 75.1488603,2.868238 17.503882,0.397814 81.950324,0.795703 87.837994,0.636563 4.51219,-0.122154 24.98533,-0.377808 36.21427,-0.515581 l 0.003,-0.209137 -1.51898,-1.406247 -107.005927,-0.33772 z" />
</svg>
