<svg xmlns="http://www.w3.org/2000/svg" viewBox="1 0 52.916665 52.916668" height="200" width="200"><g transform="translate(0,-244.08332)" ><g transform="translate(0.75430128,-0.13440167)" ><path fill="#000" d="m 38.803475,248.96079 -8.82076,5.78803 -14.848417,17.58023 -0.509108,-0.28401 -0.323642,0.63671 21.425086,11.00541 -1.336575,4.02161 c -2.617063,-0.84814 -5.289773,-1.51142 -7.956304,-2.04278 -6.662097,-3.41957 -6.297925,-4.82961 -0.881138,-4.28481 l 5.238015,1.53531 0.03595,-0.1749 -5.147093,-1.49905 c -5.716988,-0.57817 -6.299836,1.06735 0.722052,4.63217 -0.0082,1.73672 -0.222815,3.4392 -0.22272,5.17668 4.066394,1.39864 8.13286,2.79718 12.199315,4.19599 l 3.210259,-4.63746 c -0.533115,-0.24891 -1.067161,-0.49588 -1.60447,-0.73685 -1.721913,-0.78988 -3.492408,-1.47089 -5.290022,-2.06443 l 8.247713,-24.48555 -0.24993,-0.11414 z"/><path fill="#800" d="m 32.205278,246.10473 -8.866062,5.79495 -14.8727679,17.62372 0.4641328,0.393 14.8279481,-17.57295 8.792444,-5.7374 z"/><path fill="#800" d="m 34.297927,247.2216 -8.866058,5.79496 -14.872769,17.62372 0.464133,0.39299 14.825345,-17.57121 0.0052,-0.003 8.789845,-5.73567 -0.345566,-0.50141 z"/><path fill="#800" d="m 36.401212,248.29496 -8.866063,5.79496 c -4.897878,5.80631 -9.927977,11.76476 -14.872767,17.62372 l 0.464133,0.39299 14.827945,-17.57294 8.792447,-5.73741 -0.345566,-0.50141 z"/></g></g></svg>
