<?xml version="1.0" encoding="UTF-8" standalone="no"?>
<svg
   xmlns:dc="http://purl.org/dc/elements/1.1/"
   xmlns:cc="http://creativecommons.org/ns#"
   xmlns:rdf="http://www.w3.org/1999/02/22-rdf-syntax-ns#"
   xmlns:svg="http://www.w3.org/2000/svg"
   xmlns="http://www.w3.org/2000/svg"
   id="svg1727"
   version="1.1"
   width="20"
   viewBox="0 0 20 14"
   height="14"
   enable-background="new 0 0 1000 500">
  <metadata
     id="metadata1733">
    <rdf:RDF>
      <cc:Work
         rdf:about="">
        <dc:format>image/svg+xml</dc:format>
        <dc:type
           rdf:resource="http://purl.org/dc/dcmitype/StillImage" />
        <dc:title></dc:title>
      </cc:Work>
    </rdf:RDF>
  </metadata>
  <defs
     id="defs1731" />
  <path
     style="fill:#c8102e;stroke-width:0.02366432"
     id="path1319"
     d="M 0,0 H 20 V 14 H 0 Z" />
  <path
     style="fill:#012169;stroke-width:0.01925"
     id="path1321"
     d="M 0,0 H 9.625 V 4.8125 H 0 Z" />
  <g
     id="g1333"
     transform="scale(0.16041666)">
    <path
       style="fill:#ffffff"
       id="path1323"
       d="M 0,0 V 3.354 L 53.292,30 H 60 V 26.646 L 6.708,0 Z M 60,0 V 3.354 L 6.708,30 H 0 V 26.646 L 53.292,0 Z" />
    <path
       style="fill:#ffffff"
       id="path1325"
       d="M 25,0 V 30 H 35 V 0 Z M 0,10 V 20 H 60 V 10 Z" />
    <g
       style="fill:#c8102e"
       id="g1331">
      <path
         id="path1327"
         d="m 0,12 v 6 H 60 V 12 Z M 27,0 v 30 h 6 V 0 Z" />
      <path
         id="path1329"
         d="M 0,30 20,20 h 4.472 l -20,10 z M 0,0 20,10 H 15.528 L 0,2.236 Z m 35.528,10 20,-10 H 60 L 40,10 Z M 60,30 40,20 h 4.472 L 60,27.764 Z" />
    </g>
  </g>
  <g
     transform="translate(-5.880772,2.8058438e-4)"
     id="g1931">
    <path
       d="m 24.230108,2.986592 v 5.928636 c 0,1.583596 -3.165736,2.098124 -3.165736,2.098124 0,0 -3.165736,-0.514528 -3.165736,-2.098124 V 2.986592 Z"
       id="path1335"
       style="fill:#ffffff;stroke-width:0.028" />
    <path
       d="m 24.230108,8.915228 c 0,1.583596 -3.165736,2.098124 -3.165736,2.098124 0,0 -3.165736,-0.514528 -3.165736,-2.098124 0,0 0,-0.12754 0.06443,-0.20006 0,0 -0.03489,0.263396 0.167468,0.462616 0,0 -0.158732,-0.281036 -0.0035,-0.557228 0,0 -0.05757,0.355348 0.163968,0.559412 0,0 -0.122108,-0.290276 0.01571,-0.613956 0,0 -0.06804,0.529508 0.172704,0.635068 0,0 0.06628,-0.304332 -0.02965,-0.499604 0,0 0.165732,0.066836 0.156996,0.508396 0,0 0.05233,-0.0651 0.06628,-0.383516 0,0 0.007,0.36414 0.13258,0.448588 0,0 0.03839,-0.036932 -0.01394,-0.2023 -0.05233,-0.165368 0.02268,-0.223412 0.03489,-0.219912 0,0 -0.02752,0.182952 0.125804,0.32018 0,0 -0.06647,-0.286748 0.02598,-0.325444 0,0 -0.01918,0.24276 0.172704,0.297304 0,0 0.01394,-0.070364 -0.02792,-0.14952 0,0 -0.03662,-0.093884 -0.0087,-0.165704 0,0 0.06107,0.22022 0.144788,0.25718 0,0 -0.0506,-0.12908 -0.0035,-0.25718 0,0 0.01047,0.183288 0.17444,0.258916 0,0 -0.108024,-0.141876 -0.06535,-0.297892 l 1.054452,0.051604 0.546028,0.02604 1.638056,-0.115752 0.282604,-0.24276 c 0,0 0.111636,0.154812 -0.06454,0.399336 0,0 0.17444,-0.031668 0.230272,-0.304332 0,0 0.07151,0.151284 -0.02618,0.318416 0,0 0.193648,-0.193508 0.221536,-0.41342 0,0 0.07501,0.212856 -0.108164,0.44156 0,0 0.163968,-0.054544 0.233772,-0.297304 0,0 0.05583,0.146216 -0.102928,0.352828 0,0 0.296548,-0.157556 0.28784,-0.483 0,0 0.123844,0.179424 -0.01744,0.425712 0,0 0.15176,-0.135464 0.165732,-0.337764 0,0 0.08375,0.091476 -0.007,0.343028 0,0 0.184912,-0.17416 0.212828,-0.362404 0,0 0.04012,0.17416 -0.118636,0.394044 0,0 0.108164,-0.026376 0.211092,-0.240996 0,0 0.02792,0.084448 -0.06628,0.23926 0,0 0.101192,-0.017584 0.169204,-0.211092 0,0 0.01221,0.116116 -0.01744,0.219912 0,0 0.07851,-0.051016 0.09596,-0.270928 0,0 0.04385,0.072128 0.0446,0.16184 7e-4,0.08974 -5.6e-5,0.030828 -5.6e-5,0.030828 z"
       id="path1337"
       style="fill:#2f8f22;stroke-width:0.028" />
    <g
       id="g1345"
       style="stroke:#000000"
       transform="scale(0.028)">
      <path
         d="m 807.139,195.999 c 0,0 -3.929,0.668 -8.975,-0.87 -5.046,-1.537 -7.086,-0.913 -8.652,0 0,0 2.048,-4.055 -2.936,-7.257 0,0 1.62,4.094 -0.623,6.006 0,0 -0.997,0.938 -2.181,-0.475 0,0 -1.744,-1.791 -3.582,-3.173 0,0 4.237,-1.476 3.458,-5.78 -0.779,-4.304 -3.084,-4.869 -4.33,-5.403 0,0 0.436,1.948 0,3.267 0,0 -4.61,-2.576 1.651,-6.22 6.261,-3.644 5.109,-5.78 3.987,-7.634 -1.121,-1.853 -3.52,-3.895 -4.704,-4.618 0,0 1.246,1.948 1.028,3.613 -0.218,1.665 -3.053,2.733 -2.492,-0.188 0.561,-2.922 -0.031,-2.419 -0.094,-5.529 0,0 5.576,1.885 7.757,-3.55 0,0 2.149,-5.623 -4.891,-8.419 0,0 1.713,2.293 0.872,4.021 0,0 -1.495,2.827 -3.271,0.534 -1.776,-2.293 -2.897,-2.733 -2.71,-5.435 0,0 6.386,0.88 4.642,-6.063 0,0 -1.028,4.618 -9.314,-1.602 0,0 5.389,-5.529 3.302,-9.99 0,0 -0.654,-2.042 -6.511,-0.848 0,0 5.078,-3.204 2.928,-5.937 0,0 -1.09,-1.822 -5.825,0.565 0,0 1.838,-3.173 -2.804,-6.597 0,0 -3.115,1.634 -4.766,3.141 0,0 -3.177,-4.021 -5.202,-5.623 0,0 -3.676,1.414 -4.61,5.623 0,0 -1.713,-2.042 -5.607,-2.984 0,0 -1.869,3.456 0.561,6.471 0,0 -1.807,-0.063 -5.109,-1.508 0,0 -3.769,-1.791 -3.209,1.445 0.56,3.236 0.841,3.958 1.589,5.466 0,0 -8.458,-1.964 -8.099,2.607 0.249,3.173 1.433,5.906 4.05,8.199 0,0 -4.735,6.189 -8.785,1.539 0,0 -1.402,1.508 1.62,5.466 0,0 3.022,3.33 0.53,5.435 0,0 -3.333,2.67 -4.953,-2.513 0,0 -5.389,5.372 0.966,9.487 0,0 4.081,2.325 8.255,-1.257 0,0 -1.277,10.304 -5.265,8.325 0,0 -2.399,-1.759 1.9,-3.864 0,0 -6.199,-0.785 -7.196,5.215 0,0 -0.765,4.774 4.641,6.503 0,0 4.174,1.508 -0.156,4.744 0,0 -3.053,2.325 -1.059,5.78 0,0 2.399,3.801 -3.676,4.178 0,0 -3.302,-0.031 -4.486,-0.471 0,0 -1.332,2.477 -0.401,5.307 0,0 -3.025,-2.254 -9.91,0.24 -6.884,2.495 -6.355,0.736 -6.916,1.49 -0.561,0.754 -1.9,3.298 -1.9,3.298 0,0 3.614,4.398 3.676,4.304 0.062,-0.094 -0.685,5.026 -0.685,5.026 l 1.776,0.848 14.174,-6.314 14.392,-7.5 11.571,0.709 7.338,1.747 9.639,0.702 6.903,-3.682 h 9.999 l 10.998,5.48 12.552,7.489 6.542,1.147 5.04,-0.269 v -10.166 z"
         id="path1339"
         style="fill:#c8102e;stroke-width:0.83099997;stroke-linejoin:round" />
      <path
         d="m 692.974,207.886 c 0,0 5.483,2.796 7.772,-0.597 0,0 2.991,-5.702 -3.575,-7.681 0,0 3.575,-4.288 -0.257,-8.246 0,0 -2.009,-2.12 -5.514,-0.565 0,0 -1.449,-3.016 -4.86,-2.922 0,0 -2.99,-0.047 -4.018,3.251 0,0 -4.112,-1.696 -6.402,0.754 0,0 -3.785,4.241 1.495,7.587 l 3.8,0.346 3.738,-1.728 4.174,1.194 c 0.003,-0.001 -1.072,4.225 3.647,8.607 z"
         id="path1341"
         style="fill:#c8102e;stroke-width:0.83099997;stroke-linejoin:round" />
      <path
         d="m 815.359,197.859 c 6.605,-0.622 8.937,4.952 8.937,4.952 3.462,8.122 -3.89,12.458 -3.89,12.458 0.561,1.822 0.623,4.209 0.623,4.209 10.342,1.257 8.534,12.88 8.534,12.88 l -3.425,-2.827 c -5.981,-2.325 -12.149,2.764 -16.572,11.309 -4.423,8.545 -2.305,12.566 -1.558,22.681 0.748,10.115 17.195,16.147 17.195,16.147 0,0 -7.788,20.042 -12.834,32.922 -5.046,12.88 -15.576,7.539 -18.628,4.826 -3.053,-2.713 -3.816,-1.206 -5.358,0 -1.542,1.206 6.916,7.802 -8.473,14.022 -15.389,6.22 -18.068,10.995 -20.622,12.566 -2.554,1.571 -13.208,0.503 -14.267,-0.817 -1.059,-1.319 -0.436,-1.319 -4.423,-3.77 -3.987,-2.45 -10.716,-4.586 -18.068,-8.168 -7.352,-3.581 -7.165,-8.168 -7.102,-9.11 0.062,-0.942 2.554,-8.607 -6.056,-2.513 -8.61,6.094 -15.937,-2.902 -15.937,-2.902 -1.682,-2.211 -8.847,-21.412 -8.847,-21.412 -1.931,-7.162 -5.732,-15.519 -5.732,-15.519 0.187,-0.063 -0.374,0.88 5.981,-2.764 6.355,-3.644 9.201,-9.707 11.401,-15.707 2.2,-6 0.062,-16.272 -0.748,-18.346 -0.81,-2.073 -5.545,-11.579 -11.408,-13.571 -5.863,-1.992 -9.795,2.953 -9.795,2.953 0,0 -1.809,-11.623 8.534,-12.88 0,0 0.062,-2.387 0.623,-4.209 0,0 -7.352,-4.335 -3.89,-12.458 0,0 2.332,-5.574 8.937,-4.952 l -1.598,3.022 c 0,0 -1.663,16.587 22.616,5.466 24.279,-11.121 23.55,-13.194 37.381,-6.22 l 10.093,-0.188 c 0,0 14.579,-6.744 19.251,-3.843 4.673,2.901 21.494,12.325 21.494,12.325 0,0 16.261,6.098 19.438,-5.15 z"
         id="path1343"
         style="fill:#64b4d1;stroke-width:0.62300003" />
    </g>
    <path
       d="m 20.78468,7.553616 c 0,0 -0.02363,-0.142548 -0.04847,-0.234864 0,0 -0.05046,-0.144872 0.03562,-0.246568 l 0.106736,-0.122836 c 0,0 0.06633,-0.089236 0.148456,-0.10136 0,0 0.08212,-0.00244 0.08996,-0.019152 0.0078,-0.016716 0.09769,-0.164556 0.311388,0 0,0 0.06804,-0.10906 0.172704,-0.12754 0,0 0.113064,-0.0343 0.167748,0.050148 0,0 0.127064,-0.096348 0.236096,0.058716 0,0 0.150892,-0.084868 0.260792,0.083888 0,0 0.149156,-0.072744 0.240744,0.08232 0.09159,0.155064 0.07328,0.2184 0.07328,0.2184 l 0.06798,0.246288 0.2408,0.297304 -0.559972,0.211092 H 22.077356 L 21.574952,8.08402 20.682676,8.15262 20.434092,7.859712 Z"
       stroke-miterlimit="10"
       id="path1347"
       style="fill:#ffffff;stroke:#012169;stroke-width:0.0232596;stroke-miterlimit:10" />
    <g
       id="g1359"
       style="stroke:#000000"
       transform="scale(0.028)">
      <path
         d="m 715.374,322.736 c 0,0 -4.766,0.283 -7.196,1.508 -2.43,1.225 -4.299,2.545 -7.102,4.335 0,0 -1.308,1.743 -6.822,0.683 0,0 -9.532,-2.285 -9.532,5.16 0,0 -11.401,0.942 -6.729,10.932 0,0 3.177,7.822 9.719,2.262 0,0 -4.205,6.031 3.925,8.388 0,0 5.794,1.414 7.476,-4.524 0,0 0.935,-2.356 -1.308,-5.278 0,0 2.804,-0.565 4.766,-3.581 0,0 -5.981,7.559 0.561,10.282 0,0 8.221,2.063 8.69,-6.513 0,0 -0.671,-3.958 2.515,-5.372 0,0 6.551,-1.508 9.541,-8.812 10e-4,10e-4 -9.419,-5.016 -8.504,-9.47 z"
         id="path1349"
         style="fill:#c8102e;stroke-width:0.83099997;stroke-linejoin:round" />
      <path
         d="m 696.127,247.568 c 0,0 -7.352,-3.386 -10.841,0 0,0 -4.86,-3.009 -9.968,0 0,0 -4.86,3.176 -8.224,6.674 0,0 -2.367,2.027 -1.495,8.417 0,0 1.246,4.505 0.498,6.767 0,0 -1.62,-0.321 -4.86,3.518 0,0 -4.112,4.762 -7.725,0.559 0,0 1.121,5.85 7.912,4.907 0,0 -3.302,2.576 -0.436,9.236 0,0 2.118,4.712 -1.246,10.618 0,0 5.919,-2.387 5.669,-9.361 0,0 -0.498,-4.712 1.246,-8.042 0,0 -1.744,3.028 2.305,9.487 0,0 3.115,4.649 0.561,9.487 0,0 5.856,-2.136 5.296,-9.236 -0.56,-7.1 -4.112,-4.147 -1.807,-10.681 0,0 0.561,3.347 2.305,5.035 1.744,1.688 3.987,4.515 3.053,9.227 0,0 3.489,-4.335 2.679,-8.796 -0.81,-4.461 -1.682,-5.81 -1.682,-5.81 l 11.027,-6.253 5.483,-9.927 z"
         id="path1351"
         style="fill:#c8102e;stroke-width:0.83099997;stroke-linejoin:round" />
      <g
         stroke-miterlimit="10"
         id="g1357"
         style="fill:none;stroke-width:0.83069998;stroke-miterlimit:10">
        <path
           d="m 679.368,275.583 c 0,0 -4.548,-0.314 -5.296,-3.833"
           id="path1353" />
        <path
           d="m 666.097,269.426 c 0,0 1.585,-0.063 3.018,1.382 0,0 1.094,1.634 2.652,1.445"
           id="path1355" />
      </g>
    </g>
    <path
       d="m 19.210688,7.341628 c 0,0 -0.06628,0 -0.102928,-0.031668 0,0 -0.03839,-0.026376 -0.06107,0.01582 0,0 -0.03489,0.059808 0.02965,0.086212 0,0 0.08025,0.04046 -0.0471,0.12138 0,0 0.15176,-0.054544 0.09072,-0.128408 0,0 -0.06628,-0.047488 -0.04186,-0.0651 0,0 0.007,-0.014084 0.03315,0.00353 0.02618,0.017584 0.07851,0.010556 0.09943,-0.00176 z"
       id="path1361"
       style="stroke-width:0.028" />
    <path
       d="M 21.291424,7.677712 20.78132,5.916148 20.762644,5.92116 21.213388,7.704088 Z"
       id="path1363"
       style="fill:#784421;stroke:#000000;stroke-width:0.017444" />
    <path
       d="m 19.514992,9.65398 c 0,0 -0.120372,-0.06762 -0.2198,0.011536 0,0 0.01016,-0.043988 0.08621,-0.063336 0,0 0.04116,-0.116116 0.156268,-0.10556 0,0 -0.0471,0.05628 -0.1099,0.103796 0,0 0.0663,0.00686 0.08722,0.053564 z"
       id="path1365"
       style="stroke-width:0.028" />
    <path
       d="m 19.0911,9.933784 c 0,0 -0.191016,-0.120064 -0.08767,-0.321944 0,0 0.0301,-0.058044 0.08767,-0.046172 0,0 0.119056,0.036932 0.02618,0.20188 -2.8e-5,0 -0.04712,0.106876 -0.02618,0.166236 z"
       stroke-miterlimit="2.613"
       id="path1367"
       style="fill:#64b4d1;stroke:#012169;stroke-width:0.017444;stroke-miterlimit:2.61299992" />
    <path
       d="m 19.478368,10.123792 c 0,0 -0.272132,-0.124012 -0.188412,-0.335132 0,0 0.02587,-0.07126 0.08621,-0.065968 0,0 0.104944,0.00526 0.08394,0.145124 0,0 -0.03147,0.137228 0.01826,0.255976 z"
       stroke-miterlimit="2.613"
       id="path1369"
       style="fill:#64b4d1;stroke:#012169;stroke-width:0.017444;stroke-miterlimit:2.61299992" />
    <path
       d="m 19.4208,9.335956 c 0,0 -0.08176,0.060396 -0.115024,0.100856 0,0 -0.03326,-0.041328 -0.07686,-0.066416 0,0 0.0502,-0.00661 0.07686,0.015988 0,0 0.04175,-0.04046 0.115024,-0.050428 z"
       id="path1371"
       style="stroke-width:0.028" />
    <path
       d="m 19.662832,10.071012 c 0,0 0.213248,-0.0541 0.17402,-0.274428 0,0 -0.02094,-0.09632 -0.111216,-0.083132 0,0 -0.10878,0.027776 -0.03794,0.167832 0,0 0.04186,0.100016 -0.02486,0.189728 z"
       stroke-miterlimit="2.613"
       id="path1373"
       style="fill:#64b4d1;stroke:#012169;stroke-width:0.017444;stroke-miterlimit:2.61299992" />
    <path
       d="m 20.626368,5.409628 c 0,0 0.137368,0.042112 0.21196,0.07252 0,0 0.198856,0.089712 0.451388,0 0,0 0.170772,-0.06762 0.193536,-0.07252 l -0.13076,0.199192 -0.0066,0.1029 0.08182,0.120064 c 0,0 -0.04908,0.019796 -0.195636,-0.069944 0,0 -0.162232,-0.125328 -0.35588,0 0,0 -0.10598,0.071792 -0.194936,0.069944 L 20.806912,5.691532 20.7585,5.565252 Z"
       stroke-miterlimit="2.613"
       id="path1375"
       style="fill:#f5ce00;stroke:#000000;stroke-width:0.0232596;stroke-miterlimit:2.61299992" />
    <path
       d="m 19.745264,9.807784 c 0,0 0.0078,-0.010556 -0.0013,-0.015176 0,0 -0.0092,-0.00395 -0.01571,0.0089 0,0 -0.02223,0.03528 -0.0034,0.083608 0,0 0.01781,0.033488 0.0092,0.06846 0,0 -0.0012,0.00988 0.0067,0.011228 0,0 0.0075,-0.00263 0.009,-0.00988 0,0 0.01064,-0.034132 -0.0077,-0.067536 2.8e-5,-2.8e-5 -0.02223,-0.051884 0.0033,-0.079604 z"
       id="path1377"
       style="fill:#ffffff;stroke-width:0.028" />
    <g
       id="g1389"
       style="stroke:#000000"
       transform="scale(0.028)">
      <path
         d="m 810.687,207.886 c 0,0 -5.483,2.796 -7.772,-0.597 0,0 -2.99,-5.702 3.575,-7.681 0,0 -3.575,-4.288 0.257,-8.246 0,0 2.009,-2.12 5.514,-0.565 0,0 1.449,-3.016 4.86,-2.922 0,0 2.99,-0.047 4.018,3.251 0,0 4.112,-1.696 6.401,0.754 0,0 3.785,4.241 -1.495,7.587 l -3.8,0.346 -3.738,-1.728 -4.174,1.194 c -0.002,-0.001 1.073,4.225 -3.646,8.607 z"
         id="path1379"
         style="fill:#c8102e;stroke-width:0.83099997;stroke-linejoin:round" />
      <path
         d="m 767.262,203.457 c 0,0 -0.138,1.131 -1.26,1.257 0,0 -1.17,0.377 -1.852,-1.08 0,0 -0.079,-0.33 -0.097,-0.491 -0.078,-0.681 -0.311,-2.639 1.807,-4.241 0,0 3.458,-2.827 10.062,0.597 0,0 5.233,2.513 8.847,4.649 0,0 9.345,5.026 10.467,5.403 0,0 4.112,2.073 10.404,2.325 0,0 8.598,0.628 12.242,-5.403 0,0 2.772,-4.586 0,-7.508 0,0 -1.121,-1.319 -2.965,-1.076 -0.774,0.102 -1.629,0.458 -2.455,1.422 0,0 -1.339,1.948 0.218,3.393 0,0 2.025,1.241 2.741,-1.382 0,0 0.031,-0.188 0.093,0.047 0.04,0.152 0.498,2.152 -0.576,3.848 0,0 -5.187,7.849 -19.454,-0.285 l -18.815,-10.553 c 0,0 -9.439,-4.838 -15.077,2.733 0,0 -4.548,6.283 1.308,10.398 0,0 4.361,2.607 7.102,-1.539 0,0 2.274,-4.084 -1.308,-5.874 0,0 -3.146,-1.476 -4.392,1.665 -1.246,3.141 2.43,3.958 2.772,1.728 0.001,-0.002 0.095,-0.536 0.188,-0.033 z"
         stroke-miterlimit="2.613"
         id="path1381"
         style="fill:#f5ce00;stroke-width:0.83069998;stroke-miterlimit:2.61299992" />
      <g
         id="g1387"
         style="stroke-width:0.62300003">
        <path
           d="m 692.68,235.844 c 0,0 0,-9.801 0,-11.78 0,-0.925 0.007,-1.696 1.408,-2.827 1.401,-1.131 2.897,-2.922 5.046,2.168 0,0 4.205,-4.429 5.607,-5.089 0,0 2.43,-2.073 4.112,0.942 0,0 2.243,-3.393 4.018,-4.241 0,0 4.205,-2.733 4.392,5.466 l 3.271,-3.016 c 0,0 2.523,-2.073 5.327,0.754 0,0 4.766,4.618 5.42,5.937 0,0 1.052,1.429 1.133,3.683 0,0 -0.012,2.537 1.296,3.95 0,0 1.494,1.319 2.943,1.602 0,0 3.411,0.094 4.626,3.298 0,0 0.561,-0.555 2.243,14.801 v 27.985 l -18.878,22.524 -30.279,-8.67 -12.055,-4.995 -2.71,-8.859 11.682,-7.539 6.355,-17.152 -2.056,-12.063 z"
           stroke-miterlimit="2.613"
           id="path1383"
           style="fill:#e4cb5e;stroke-miterlimit:2.61299992" />
        <path
           d="m 776.109,250.703 1.433,-2.136 3.427,-2.639 c 0,0 5.233,13.734 5.483,16.731 v 4.262 c 0,0 7.85,2.003 9.221,14.066 l -6.479,11.937 -10.155,-5.655 -2.928,-2.136 v -34.43 z"
           id="path1385"
           style="fill:#784421" />
      </g>
    </g>
    <path
       d="m 19.038096,9.660028 c 0,0 0.01047,-0.01386 0.0033,-0.019796 0,0 -0.0046,-0.00661 -0.017,0.00924 0,0 -0.05779,0.064596 -0.01179,0.16394 0,0 0.0052,0.014168 0.01439,0.00955 0,0 0.0078,-0.00395 6.44e-4,-0.01582 2.8e-5,0 -0.04119,-0.081816 0.01047,-0.147112 z"
       id="path1391"
       style="fill:#ffffff;stroke-width:0.028" />
    <g
       id="g1417"
       style="stroke:#000000"
       transform="scale(0.028)">
      <path
         d="m 710.546,342.684 c 0,0 0.311,-1.068 -0.436,-2.199 0,0 -0.498,-0.817 -0.312,-1.885"
         stroke-miterlimit="10"
         id="path1393"
         style="fill:none;stroke-width:0.83069998;stroke-miterlimit:10" />
      <path
         d="m 717.265,220.483 c 0,0 0.028,2.946 0.869,5.114 0.841,2.168 3.681,5.917 3.868,7.943"
         stroke-miterlimit="10"
         id="path1395"
         style="fill:none;stroke-width:0.62300003;stroke-miterlimit:10" />
      <path
         d="m 788.476,322.736 c 0,0 4.766,0.283 7.196,1.508 2.43,1.225 4.299,2.545 7.102,4.335 0,0 1.308,1.743 6.822,0.683 0,0 9.532,-2.285 9.532,5.16 0,0 11.401,0.942 6.729,10.932 0,0 -3.177,7.822 -9.719,2.262 0,0 4.205,6.031 -3.925,8.388 0,0 -5.794,1.414 -7.476,-4.524 0,0 -0.935,-2.356 1.308,-5.278 0,0 -2.804,-0.565 -4.766,-3.581 0,0 5.981,7.559 -0.561,10.282 0,0 -8.221,2.063 -8.69,-6.513 0,0 0.671,-3.958 -2.515,-5.372 0,0 -6.551,-1.508 -9.541,-8.812 0,10e-4 9.419,-5.016 8.504,-9.47 z"
         id="path1397"
         style="fill:#c8102e;stroke-width:0.83099997;stroke-linejoin:round" />
      <g
         id="g1415"
         style="stroke-width:0.62300003">
        <g
           stroke-miterlimit="10"
           id="g1405"
           style="fill:none;stroke-miterlimit:10">
          <path
             d="m 713.505,233.536 7.778,62.78"
             id="path1399" />
          <path
             d="m 715.302,233.4 8.723,58.519"
             id="path1401" />
          <path
             d="m 716.937,233.128 10.047,58.037"
             id="path1403" />
        </g>
        <path
           d="m 735.613,285.227 -18.219,-62.913 -0.667,0.179 16.099,63.677 z"
           id="path1407"
           style="fill:#784421" />
        <g
           stroke-miterlimit="10"
           id="g1413"
           style="fill:none;stroke-miterlimit:10">
          <path
             d="m 722.511,230.823 18.398,46.488"
             id="path1409" />
          <path
             d="m 721.283,231.575 17.756,48.563"
             id="path1411" />
        </g>
      </g>
    </g>
    <path
       d="m 19.379808,9.998884 c 0,0 -0.05978,-0.057316 -0.05146,-0.160076 0,0 0.0035,-0.02198 -0.0075,-0.025032 0,0 -0.0117,-0.00487 -0.01344,0.020636 0,0 -0.01658,0.107324 0.05583,0.168868 0,0 0.0049,0.0062 0.01294,0.0044 -2.8e-5,0 0.0085,-0.0019 0.0036,-0.00879 z"
       id="path1419"
       style="fill:#ffffff;stroke-width:0.028" />
    <g
       id="g1441"
       style="stroke:#000000"
       transform="scale(0.028)">
      <path
         d="m 723.341,230.192 18.969,42.407"
         stroke-miterlimit="10"
         id="path1421"
         style="fill:none;stroke-width:0.62300003;stroke-miterlimit:10" />
      <path
         d="m 718.153,232.827 11.635,57.112"
         stroke-miterlimit="10"
         id="path1423"
         style="fill:none;stroke-width:0.62300003;stroke-miterlimit:10" />
      <path
         d="m 813.327,275.146 c -8.31,-4.715 -10.132,-15.176 -10.132,-15.176 -2.009,-10.414 2.056,-18.66 2.056,-18.66 5.374,-11.356 14.582,-13.469 14.582,-13.469 0,0 -9.021,6.259 -11.544,14.694 0,0 -1.963,7.115 -0.841,14.136 1.121,7.021 0.701,5.23 2.43,10.649 z"
         stroke-miterlimit="2.613"
         id="path1425"
         style="fill:#f5ce00;stroke-width:0.83069998;stroke-miterlimit:2.61299992" />
      <path
         d="m 777.542,248.567 -34.917,11.025 -1.904,15.554 c -8.286,12.003 -25.124,14.133 -25.124,14.133 l 13.1,13.948 25.17,5.278 13.208,-10.178 11.962,-11.058 c -1.246,-5.906 -0.561,-14.67 -0.561,-14.67 0,-1.476 0.561,-4.932 0.561,-4.932 0,0 -2.056,-14.199 -1.495,-19.1 z"
         id="path1427"
         style="fill:#784421;stroke-width:0.3804" />
      <g
         stroke-miterlimit="10"
         id="g1437"
         style="fill:none;stroke-width:0.62300003;stroke-miterlimit:10">
        <path
           d="m 741.2,271.238 c 0,0 22.997,-7.181 36.71,-12.947"
           id="path1429" />
        <path
           d="m 730.161,284.347 c 0,0 28.69,-5.183 48.876,-16.68 l 7.414,-5.008"
           id="path1431" />
        <path
           d="m 786.451,266.921 -7.975,5.678 c 0,0 -32.086,14.796 -56.516,15.191"
           id="path1433" />
        <path
           d="m 778.47,283.113 c 0,0 -24.665,12.701 -38.808,12.89"
           id="path1435" />
      </g>
      <path
         d="m 807.883,247.568 c 0,0 7.352,-3.386 10.841,0 0,0 4.86,-3.009 9.968,0 0,0 4.86,3.176 8.224,6.674 0,0 2.367,2.027 1.495,8.417 0,0 -1.246,4.505 -0.498,6.767 0,0 1.62,-0.321 4.86,3.518 0,0 4.112,4.762 7.725,0.559 0,0 -1.121,5.85 -7.912,4.907 0,0 3.302,2.576 0.436,9.236 0,0 -2.118,4.712 1.246,10.618 0,0 -5.919,-2.387 -5.669,-9.361 0,0 0.498,-4.712 -1.246,-8.042 0,0 1.744,3.028 -2.305,9.487 0,0 -3.115,4.649 -0.561,9.487 0,0 -5.856,-2.136 -5.296,-9.236 0.561,-7.1 4.112,-4.147 1.807,-10.681 0,0 -0.561,3.346 -2.305,5.035 -1.744,1.688 -3.987,4.515 -3.053,9.227 0,0 -3.489,-4.335 -2.679,-8.796 0.81,-4.461 1.682,-5.81 1.682,-5.81 l -11.027,-6.253 -5.483,-9.927 z"
         id="path1439"
         style="fill:#c8102e;stroke-width:0.83099997;stroke-linejoin:round" />
    </g>
    <path
       d="m 19.123104,8.044428 c 0,0 0.02878,-0.13636 0.159628,-0.082712 0,0 0.04449,-0.223412 0.282604,-0.231308 0.238112,-0.00792 0.251188,0.232204 0.251188,0.248052 0,0 0.06994,-0.103096 0.186732,-0.09114 0,0 0.201348,-0.011872 0.126364,0.311416 L 20.1677,8.23928 c 0,0 0.153832,-0.361116 0.470456,-0.266112 0,0 0.308756,0.094108 0.107296,0.393176 0,0 0.152376,0.197904 0.281596,0.179424 0.12922,-0.01848 0.244356,-0.058044 0.372568,-0.284984 0.128212,-0.22694 0.426524,-0.26124 0.502404,-0.248052 0.07588,0.013188 0.135828,0.062468 0.148204,0.116116 0,0 0.157948,-0.527156 0.72576,-0.444332 l 0.22764,0.114492 0.08635,0.039592 -0.128716,0.363272 -0.313572,0.708792 -0.238056,0.073192 -0.248584,-0.142492 -0.08635,0.046284 -0.0071,0.212296 -0.32788,0.236012 -0.22764,0.093828 -0.251188,0.171528 -0.05844,0.153328 c 0,0 -0.13874,-0.058436 -0.295316,0 L 20.855352,9.627716 20.708828,9.487856 20.139588,9.219336 20.036744,8.887648 19.932836,8.841364 19.816524,8.974588 19.646452,8.994412 19.392632,8.822884 Z"
       stroke-miterlimit="10"
       id="path1443"
       style="fill:#ffffff;stroke:#012169;stroke-width:0.0232596;stroke-miterlimit:10" />
    <g
       id="g1507"
       style="stroke:#000000"
       transform="scale(0.028)">
      <g
         stroke-miterlimit="2.613"
         id="g1481"
         style="stroke-miterlimit:2.61299992">
        <g
           id="g1473"
           style="stroke-width:0.83069998">
          <path
             d="m 771.499,195.132 c 0,0 -7.759,-0.345 -7.478,7.697"
             id="path1445"
             style="fill:none" />
          <path
             d="m 822.54,280.562 c -13.504,-4.147 -17.195,-18.66 -17.195,-18.66 -2.757,-10.885 1.682,-20.403 1.682,-20.403 6.168,-14.485 16.604,-14.482 16.604,-14.482 5.233,-0.141 5.861,4.335 5.861,4.335 0.494,3.173 -1.733,4.319 -1.733,4.319 -3.582,1.948 -5.841,-0.691 -5.841,-0.691 -1.495,-1.948 -0.343,-3.675 -0.343,-3.675 0.919,-1.288 2.679,-0.723 2.679,-0.723 1.394,0.432 1.246,2.175 1.246,2.175 0.008,0.047 0.039,0.047 0.039,0.047 0.062,-0.016 0.039,-0.039 0.039,-0.039 0,0 0.311,-2.136 -1.776,-2.356 0,0 -4.065,-0.88 -8.831,5.058 0,0 -6.276,8.011 -6.261,18.377 0,0 -0.794,19.461 19.485,24.503 0,0 -2.196,3.157 -6.074,14.56 0,0 -4.392,14.655 -8.585,22.578 0,0 -5.574,11.302 -18.003,6.684 0,0 -7.401,-3.251 -7.383,-8.623 0,0 -0.514,-4.901 3.925,-5.278 0,0 4.346,-0.33 4.299,3.393 0,0 0.117,4.029 -4.626,3.11 0,0 -1.659,-0.353 -1.355,-1.979 0,0 0.265,-1.461 2.266,-0.825 0,0 0.062,0.008 0.07,-0.024 0,0 0.023,-0.035 -0.047,-0.055 0,0 -0.774,-0.346 -1.592,-0.06 0,0 -0.733,0.244 -0.791,1.387 0,0 -0.047,0.919 0.935,1.437 0,0 1.192,0.424 2.126,0.33 0,0 1.257,2.537 4.101,3.397 3.959,1.197 7.22,0.044 9.216,-1.548 2.171,-1.732 3.575,-4.759 3.995,-5.501 0.42,-0.742 4.065,-8.906 6.806,-17.686 0,0 2.399,-7.571 4.314,-11.529 z"
             id="path1447"
             style="fill:#f5ce00" />
          <path
             d="m 784.434,317.458 c 0,0 2.523,-0.342 2.523,1.908 0,0 -0.154,3.287 -4.159,2.568 0,0 -3.948,-0.864 -2.547,-5.278 0,0 0.935,-3.11 4.673,-2.662 0,0 3.621,0.165 5.21,5.113 0,0 1.215,4.171 -0.864,7.751 -2.321,3.996 -8.193,6.621 -11.027,7.783 0,0 -11.355,4.461 -14.742,7.013 0,0 -5.194,3.856 -2.897,7.445 0,0 0.888,1.367 2.22,1.367 0,0 1.519,0.071 1.776,-1.484 0,0 0.008,-0.031 -0.016,-0.071 0,0 -0.023,0 -0.031,0.039 0,0 -0.109,0.95 -0.935,1.304 0,0 -1.106,0.558 -2.266,-0.424 0,0 -1.23,-1.178 -0.202,-3.008 0,0 1.347,-2.254 4.486,-0.919 0,0 2.765,1.367 1.628,4.304 0,0 -1.012,2.703 -4.346,2.696 0,0 -2.51,-0.083 -4.115,-1.766 -2.505,-2.626 -2.641,-7.741 -0.433,-10.386 0,0 2.087,-2.812 6.277,-4.524 2.427,-0.992 7.009,-2.984 11.775,-4.853 3.35,-1.314 6.418,-2.887 8.411,-5.246 0,0 1.776,-1.979 2.29,-5.372 0,0 0.491,-2.545 -1.059,-3.102 0,0 -0.787,-0.353 -1.651,-0.236 0,0 -0.023,10e-4 -0.029,0.016 -0.002,10e-4 -0.037,0.039 0.05,0.024 z"
             id="path1449"
             style="fill:#f5ce00" />
          <path
             d="m 784.645,317.442 c 0,0 2.788,-0.503 4.532,2.812 0,0 1.028,2.136 1.194,3.372"
             id="path1451"
             style="fill:none" />
          <path
             d="m 791.279,311.776 c 0,0 -2.792,0.484 -1.354,4.434 1.355,3.723 3.872,4.944 4.619,5.462"
             id="path1453"
             style="fill:none" />
          <path
             d="m 736.653,203.456 c 0,0 0.138,1.131 1.26,1.257 0,0 1.17,0.377 1.852,-1.08 0,0 0.079,-0.33 0.097,-0.491 0.078,-0.681 0.311,-2.639 -1.807,-4.241 0,0 -3.458,-2.827 -10.062,0.597 0,0 -5.233,2.513 -8.847,4.649 0,0 -9.345,5.026 -10.467,5.403 0,0 -4.112,2.073 -10.404,2.325 0,0 -8.598,0.628 -12.242,-5.403 0,0 -2.772,-4.586 0,-7.508 0,0 1.121,-1.319 2.965,-1.076 0.774,0.102 1.629,0.458 2.455,1.422 0,0 1.339,1.948 -0.218,3.393 0,0 -2.025,1.241 -2.741,-1.382 0,0 -0.031,-0.188 -0.094,0.047 -0.04,0.152 -0.498,2.152 0.576,3.848 0,0 5.187,7.849 19.454,-0.285 l 18.815,-10.553 c 0,0 9.439,-4.838 15.077,2.733 0,0 4.548,6.283 -1.308,10.398 0,0 -4.361,2.607 -7.102,-1.539 0,0 -2.274,-4.084 1.308,-5.874 0,0 3.146,-1.476 4.392,1.665 1.246,3.141 -2.43,3.958 -2.772,1.728 0,-0.001 -0.094,-0.535 -0.187,-0.033 z"
             id="path1455"
             style="fill:#f5ce00" />
          <path
             d="m 690.588,275.146 c 8.31,-4.715 10.132,-15.176 10.132,-15.176 2.009,-10.414 -2.056,-18.66 -2.056,-18.66 -5.374,-11.356 -14.582,-13.469 -14.582,-13.469 0,0 9.021,6.259 11.544,14.694 0,0 1.963,7.115 0.841,14.136 -1.121,7.021 -0.701,5.23 -2.43,10.649 z"
             id="path1457"
             style="fill:#f5ce00" />
          <path
             d="m 732.416,195.132 c 0,0 7.759,-0.345 7.478,7.697"
             id="path1459"
             style="fill:none" />
          <path
             d="m 681.375,280.562 c 13.504,-4.147 17.195,-18.66 17.195,-18.66 2.757,-10.885 -1.682,-20.403 -1.682,-20.403 -6.168,-14.485 -16.604,-14.482 -16.604,-14.482 -5.233,-0.141 -5.861,4.335 -5.861,4.335 -0.494,3.173 1.733,4.319 1.733,4.319 3.582,1.948 5.841,-0.691 5.841,-0.691 1.495,-1.948 0.343,-3.675 0.343,-3.675 -0.919,-1.288 -2.679,-0.723 -2.679,-0.723 -1.394,0.432 -1.246,2.175 -1.246,2.175 -0.008,0.047 -0.039,0.047 -0.039,0.047 -0.062,-0.016 -0.039,-0.039 -0.039,-0.039 0,0 -0.312,-2.136 1.776,-2.356 0,0 4.065,-0.88 8.831,5.058 0,0 6.276,8.011 6.261,18.377 0,0 0.794,19.461 -19.485,24.503 0,0 2.196,3.157 6.074,14.56 0,0 4.392,14.655 8.585,22.578 0,0 5.574,11.302 18.003,6.684 0,0 7.401,-3.251 7.383,-8.623 0,0 0.514,-4.901 -3.925,-5.278 0,0 -4.346,-0.33 -4.299,3.393 0,0 -0.117,4.029 4.626,3.11 0,0 1.659,-0.353 1.355,-1.979 0,0 -0.265,-1.461 -2.266,-0.825 0,0 -0.062,0.008 -0.07,-0.024 0,0 -0.023,-0.035 0.047,-0.055 0,0 0.774,-0.346 1.592,-0.06 0,0 0.733,0.244 0.791,1.387 0,0 0.047,0.919 -0.935,1.437 0,0 -1.192,0.424 -2.126,0.33 0,0 -1.257,2.537 -4.101,3.397 -3.959,1.197 -7.22,0.044 -9.216,-1.548 -2.171,-1.732 -3.575,-4.759 -3.995,-5.501 -0.42,-0.742 -4.065,-8.906 -6.806,-17.686 0,0 -2.399,-7.571 -4.314,-11.529 z"
             id="path1461"
             style="fill:#f5ce00" />
          <path
             d="m 719.481,317.458 c 0,0 -2.523,-0.342 -2.523,1.908 0,0 0.154,3.287 4.159,2.568 0,0 3.948,-0.864 2.547,-5.278 0,0 -0.935,-3.11 -4.673,-2.662 0,0 -3.621,0.165 -5.21,5.113 0,0 -1.215,4.172 0.864,7.751 2.321,3.996 8.193,6.621 11.027,7.783 0,0 11.355,4.461 14.742,7.013 0,0 5.194,3.856 2.897,7.445 0,0 -0.888,1.367 -2.22,1.367 0,0 -1.519,0.071 -1.776,-1.484 0,0 -0.008,-0.031 0.016,-0.071 0,0 0.023,0 0.031,0.039 0,0 0.109,0.95 0.935,1.304 0,0 1.106,0.558 2.266,-0.424 0,0 1.23,-1.178 0.202,-3.008 0,0 -1.347,-2.254 -4.486,-0.919 0,0 -2.765,1.367 -1.628,4.304 0,0 1.012,2.703 4.346,2.696 0,0 2.51,-0.083 4.115,-1.766 2.505,-2.626 2.641,-7.741 0.433,-10.386 0,0 -2.087,-2.812 -6.277,-4.524 -2.427,-0.992 -7.009,-2.984 -11.775,-4.853 -3.35,-1.314 -6.418,-2.887 -8.411,-5.246 0,0 -1.776,-1.979 -2.29,-5.372 0,0 -0.491,-2.545 1.059,-3.102 0,0 0.787,-0.353 1.651,-0.236 0,0 0.023,10e-4 0.029,0.016 0.002,0 0.037,0.039 -0.05,0.024 z"
             id="path1463"
             style="fill:#f5ce00" />
          <g
             id="g1471"
             style="fill:none">
            <path
               d="m 719.27,317.442 c 0,0 -2.788,-0.503 -4.532,2.812 0,0 -1.028,2.136 -1.194,3.372"
               id="path1465" />
            <path
               d="m 712.636,311.775 c 0,0 2.792,0.484 1.354,4.434 -1.355,3.723 -3.872,4.944 -4.619,5.462"
               id="path1467" />
            <path
               d="m 745.207,202.375 c 0,0 6.75,-4.227 13.644,0.454"
               id="path1469" />
          </g>
        </g>
        <g
           id="g1479"
           style="fill:none;stroke-width:0.62300003">
          <path
             d="m 706.798,243.667 c 0,0 0.935,-3.77 -3.364,-10.367 0,0 -2.804,-6.031 -4.299,-9.895"
             id="path1475" />
          <path
             d="m 708.854,219.258 c 0,0 2.434,5.929 3.271,8.584 0,0 3.019,7.437 3.659,8.945"
             id="path1477" />
        </g>
      </g>
      <g
         id="g1503"
         style="stroke-width:0.62300003">
        <g
           stroke-miterlimit="10"
           id="g1497"
           style="fill:none;stroke-miterlimit:10">
          <path
             d="m 710.069,247.813 c 0,0 2.538,2.733 2.25,7.351"
             id="path1483" />
          <path
             d="m 701.658,244.892 c 0,0 2.804,1.351 2.619,8.796 0,0 -0.282,5.435 3.923,8.168"
             id="path1485" />
          <path
             d="m 701.278,263.772 c 0,0 8.775,-0.958 9.258,4.445 0,0 0.187,5.183 3.177,5.749 0,0 4.479,0.424 5.367,4.571"
             id="path1487" />
          <path
             d="m 704.041,269.772 c 0,0 1.542,2.309 3.037,3.298"
             id="path1489" />
          <path
             d="m 715.302,264.07 c 0,0 2.229,3.377 2.649,5.356"
             id="path1491" />
          <path
             d="m 724.959,223.404 c 0,0 2.056,2.796 4.05,4.115"
             id="path1493" />
          <path
             d="m 733.183,239.96 c 0,0 4.361,2.136 3.614,13.131 0,0 -0.561,6.448 1.246,9.967"
             id="path1495" />
        </g>
        <path
           d="m 712.639,232.499 0.28,1.037 c 0,0 7.819,0.33 12.04,-4.995 l -0.452,-1.021 c 0,0 -6.822,-0.346 -11.868,4.979 z"
           id="path1499"
           style="fill:#784421" />
        <path
           d="m 740.807,274.447 c 0,0 27.042,-8.062 37.464,-12.762"
           stroke-miterlimit="10"
           id="path1501"
           style="fill:none;stroke-miterlimit:10" />
      </g>
      <path
         d="m 737.591,223.687 13.375,-5.089 0.316,0.895 -13.378,5.081 z"
         id="path1505"
         style="fill:#784421;stroke-width:0.3804" />
    </g>
    <g
       stroke-miterlimit="10"
       id="g1611"
       style="fill:none;stroke-miterlimit:10"
       transform="scale(0.028)">
      <g
         id="g1545"
         style="stroke:#000000;stroke-width:0.62300003">
        <path
           d="m 739.039,224.143 8.878,43.524"
           id="path1509" />
        <path
           d="m 740.58,223.558 10.168,43.324"
           id="path1511" />
        <path
           d="m 742.31,222.901 11.121,43.007"
           id="path1513" />
        <path
           d="m 746.67,221.245 15.161,32.283"
           id="path1515" />
        <path
           d="m 748.676,220.483 16.167,32.094"
           id="path1517" />
        <path
           d="m 750.161,219.919 17.488,31.772"
           id="path1519" />
        <path
           d="m 747.317,268.012 6.862,-2.261"
           id="path1521" />
        <path
           d="m 742.122,263.706 c 0,0 20.114,-5.875 35.337,-12.015"
           id="path1523" />
        <path
           d="m 741.852,265.908 c 0,0 25.492,-6.745 35.606,-11.666"
           id="path1525" />
        <path
           d="m 749.631,286.641 1.335,4.084 3.649,-1.168 -1.246,-4.047"
           id="path1527" />
        <path
           d="m 759.927,283.707 1.335,4.083 3.65,-1.167 -1.247,-4.047"
           id="path1529" />
        <path
           d="m 742.625,259.592 -0.315,-5.525 33.425,-10.149 1.807,4.649"
           id="path1531" />
        <path
           d="m 756.485,249.763 1.821,4.878"
           id="path1533" />
        <path
           d="m 768.17,246.215 2.129,4.639"
           id="path1535" />
        <path
           d="m 770.941,245.374 1.991,4.389"
           id="path1537" />
        <path
           d="m 773.587,244.57 2.093,4.585"
           id="path1539" />
        <path
           d="m 775.735,243.918 3.676,-2.073 1.558,4.083"
           id="path1541" />
        <path
           d="m 777.542,242.899 1.872,4.227"
           id="path1543" />
      </g>
      <g
         id="g1609"
         style="stroke:#012169;stroke-width:0.83069998">
        <path
           d="m 694.649,306.526 c 0,0 -6.542,-6.625 0,-13.114 0,0 -7.102,-3.473 -5.981,-9.065"
           id="path1547" />
        <path
           d="m 706.331,311.775 c 0,0 -6.775,0.923 -4.766,-12.27 0,0 -2.804,5.23 -3.77,7.918 -0.723,2.012 -0.245,5.26 2.623,7.016 1.146,0.702 7.221,2.284 9.183,-1.74"
           id="path1549" />
        <path
           d="m 698.761,291.589 c 0,0 -2.757,2.545 -0.794,7.21"
           id="path1551" />
        <path
           d="m 701.611,292.201 c 0,0 0.327,4.524 2.57,7.068"
           id="path1553" />
        <path
           d="m 703.549,290.411 c 0,0 -0.021,5.325 3.81,8.623"
           id="path1555" />
        <path
           d="m 705.454,288.573 c 0,0 0.036,5.984 4.475,9.66"
           id="path1557" />
        <path
           d="m 727.498,297.337 c 0,0 2.243,-4.901 6.962,-4.665 0,0 -2.29,1.037 -2.243,3.33 0,0 -0.28,3.785 3.785,4.162 0,0 3.271,0.424 4.906,-1.367"
           id="path1559" />
        <path
           d="m 738.666,319.72 c 0,0 -11.635,-5.466 -10.42,-13.335 0,0 0.467,-4.806 5.166,-7.068"
           id="path1561" />
        <path
           d="m 730.956,304.311 c 0,0 -1.028,3.393 1.262,5.749"
           id="path1563" />
        <path
           d="m 733.572,302.002 c 0,0 -1.402,3.723 0.935,6.503"
           id="path1565" />
        <path
           d="m 736.374,300.195 c 0,0 -1.68,3.079 0.329,5.859"
           id="path1567" />
        <path
           d="m 725.769,320.52 c 0,0 6.355,5.514 11.308,5.561"
           id="path1569" />
        <path
           d="m 723.76,322.264 c 0,0 5.939,4.806 9.651,5.513"
           id="path1571" />
        <path
           d="m 721.517,323.625 c 0,0 7.341,6.461 11.894,6.932"
           id="path1573" />
        <path
           d="m 751.375,336.495 c 0,0 -7.216,3.888 -1.622,7.999"
           id="path1575" />
        <path
           d="m 746.796,332.207 c 0,0 8.177,-4.288 11.728,-5.89"
           id="path1577" />
        <path
           d="m 749.74,334.422 c 0,0 11.822,-7.21 15.326,-8.764"
           id="path1579" />
        <path
           d="m 755.814,334.893 c 0,0 10.093,-6.738 15.513,-9.66"
           id="path1581" />
        <path
           d="m 762.496,334.657 c 0,0 6.962,-5.466 13.691,-9.424"
           id="path1583" />
        <path
           d="m 778.57,318.401 c 0,0 -3.411,-4.995 -14.625,0 0,0 4.112,-3.732 12.242,-6.625"
           id="path1585" />
        <path
           d="m 787.508,290.316 c 0,0 0.919,4.052 -0.062,6.503"
           id="path1587" />
        <path
           d="m 769.318,309.966 c 0,0 2.336,-3.44 8.271,-5.136 0,0 1.6,4.005 6.215,3.11 0,0 6.962,-1.367 4.86,-9 0,0 -1.448,-5.702 -9.4,-6.267"
           id="path1589" />
        <path
           d="m 802.915,283.113 c 0,0 8.084,1.455 7.944,8.052 0,0 0.654,9.895 -9.766,11.827"
           id="path1591" />
        <path
           d="m 809.711,287.176 c 0,0 2.221,-4.823 7.174,-6.803"
           id="path1593" />
        <path
           d="m 810.866,277.547 c 0,0 2.208,3.54 3.717,4.055"
           id="path1595" />
        <path
           d="m 809.711,280.374 c 0,0 2.081,2.543 2.782,2.968"
           id="path1597" />
        <path
           d="m 809.036,282.824 c 0,0 1.096,1.619 2.067,2.129"
           id="path1599" />
        <path
           d="m 767.449,244.57 c 0,0 1.573,-2.553 5.483,-1.469"
           id="path1601" />
        <path
           d="m 788.897,263.706 c 0,0 2.477,-10.332 11.121,-6.516"
           id="path1603" />
        <path
           d="m 796.513,256.344 c 0,0 0.888,-4.763 -1.262,-7.189"
           id="path1605" />
        <path
           d="m 790.625,256.012 c 0,0 1.101,1.97 0.159,3.58"
           id="path1607" />
      </g>
    </g>
    <path
       d="m 22.62946,10.123764 c 0,0 0.272132,-0.124012 0.188412,-0.335132 0,0 -0.02587,-0.07126 -0.08621,-0.065968 0,0 -0.104944,0.00526 -0.08394,0.145124 0,2.8e-5 0.03144,0.137256 -0.01826,0.255976 z"
       stroke-miterlimit="2.613"
       id="path1613"
       style="fill:#64b4d1;stroke:#012169;stroke-width:0.017444;stroke-miterlimit:2.61299992" />
    <path
       d="m 22.72802,9.998884 c 0,0 0.05981,-0.057316 0.05146,-0.160076 0,0 -0.0035,-0.02198 0.0075,-0.025032 0,0 0.0117,-0.0049 0.01344,0.020608 0,0 0.01658,0.107324 -0.05583,0.168868 0,0 -0.0049,0.0062 -0.01294,0.0044 2.8e-5,2.8e-5 -0.0086,-0.0019 -0.0036,-0.00876 z"
       id="path1615"
       style="fill:#ffffff;stroke-width:0.028" />
    <path
       d="m 23.016728,9.933784 c 0,0 0.191016,-0.120064 0.08767,-0.321944 0,0 -0.0301,-0.058044 -0.08767,-0.046172 0,0 -0.119056,0.036932 -0.02618,0.20188 0,0 0.0471,0.106876 0.02618,0.166236 z"
       stroke-miterlimit="2.613"
       id="path1617"
       style="fill:#64b4d1;stroke:#012169;stroke-width:0.017444;stroke-miterlimit:2.61299992" />
    <path
       d="m 23.064468,9.66 c 0,0 -0.01047,-0.01386 -0.0033,-0.019796 0,0 0.0046,-0.00661 0.017,0.00924 0,0 0.05779,0.064596 0.01179,0.16394 0,0 -0.0052,0.014168 -0.01439,0.00955 0,0 -0.0078,-0.00395 -6.44e-4,-0.01582 0,0 0.04122,-0.081788 -0.01047,-0.147112 z"
       id="path1619"
       style="fill:#ffffff;stroke-width:0.028" />
    <path
       d="m 22.444968,10.071012 c 0,0 -0.213248,-0.0541 -0.17402,-0.274428 0,0 0.02094,-0.09632 0.111216,-0.083132 0,0 0.10878,0.027776 0.03794,0.167832 0,0 -0.04186,0.099988 0.02486,0.189728 z"
       stroke-miterlimit="2.613"
       id="path1621"
       style="fill:#64b4d1;stroke:#012169;stroke-width:0.017444;stroke-miterlimit:2.61299992" />
    <path
       d="m 22.362536,9.807784 c 0,0 -0.0078,-0.010556 0.0013,-0.015176 0,0 0.0092,-0.00395 0.01571,0.0089 0,0 0.02223,0.03528 0.0034,0.083608 0,0 -0.01781,0.033488 -0.0092,0.06846 0,0 0.0012,0.00988 -0.0067,0.011228 0,0 -0.0075,-0.00263 -0.009,-0.00988 0,0 -0.01064,-0.034132 0.0077,-0.067536 0,-2.8e-5 0.02226,-0.051884 -0.0033,-0.079604 z"
       id="path1623"
       style="fill:#ffffff;stroke-width:0.028" />
    <path
       d="m 22.598044,9.65398 c 0,0 0.120372,-0.06762 0.2198,0.011536 0,0 -0.01016,-0.043988 -0.08621,-0.063336 0,0 -0.04113,-0.116116 -0.156268,-0.10556 0,0 0.0471,0.05628 0.1099,0.103796 0,0 -0.06628,0.00686 -0.08722,0.053564 z"
       id="path1625"
       style="stroke-width:0.028" />
    <path
       d="m 22.687028,9.335956 c 0,0 0.08176,0.060396 0.115024,0.100856 0,0 0.03326,-0.041328 0.07686,-0.066416 0,0 -0.0502,-0.00661 -0.07686,0.015988 0,0 -0.04178,-0.04046 -0.115024,-0.050428 z"
       id="path1627"
       style="stroke-width:0.028" />
    <g
       stroke-miterlimit="10"
       id="g1635"
       style="fill:none;stroke:#000000;stroke-width:0.83069998;stroke-miterlimit:10"
       transform="scale(0.028)">
      <path
         d="m 793.305,342.684 c 0,0 -0.312,-1.068 0.436,-2.199 0,0 0.498,-0.817 0.312,-1.885"
         id="path1629" />
      <path
         d="m 824.642,275.583 c 0,0 4.548,-0.314 5.296,-3.833"
         id="path1631" />
      <path
         d="m 837.913,269.426 c 0,0 -1.585,-0.063 -3.018,1.382 0,0 -1.094,1.634 -2.652,1.445"
         id="path1633" />
    </g>
    <path
       d="m 22.901592,7.341628 c 0,0 0.06628,0 0.102928,-0.031668 0,0 0.03839,-0.026376 0.06107,0.01582 0,0 0.03489,0.059808 -0.02965,0.086212 0,0 -0.08025,0.04046 0.0471,0.12138 0,0 -0.15176,-0.054544 -0.09072,-0.128408 0,0 0.06628,-0.047488 0.04186,-0.0651 0,0 -0.007,-0.014084 -0.03315,0.00353 -0.02618,0.017584 -0.07851,0.010556 -0.09943,-0.00176 z"
       id="path1637"
       style="stroke-width:0.028" />
    <path
       d="m 22.991752,5.739636 c 0,0 0.02993,-0.04074 0.0177,-0.162988 -0.01224,-0.122248 0.09391,-0.136304 0.134736,-0.101164 0,0 0.0422,0.03654 0.0034,0.114072 -0.0224,0.044744 -0.05816,0.102676 -0.15582,0.15008 z"
       stroke-miterlimit="2.613"
       id="path1639"
       style="fill:#64b4d1;stroke:#012169;stroke-width:0.017444;stroke-miterlimit:2.61299992" />
    <path
       d="m 23.031652,5.648356 c 0,0 0.03979,-0.042784 0.0208,-0.13566 0,0 -1.4e-4,-0.00916 0.0051,-0.00977 0,0 0.0097,-0.00244 0.01128,0.00672 0,0 0.02136,0.099008 -0.02355,0.152796 0,0 -0.0082,0.00795 -0.01369,0 2.8e-5,-2.8e-5 -0.006,-0.00571 2.8e-5,-0.014084 z"
       id="path1641"
       style="fill:#ffffff;stroke-width:0.028" />
    <path
       d="m 22.957844,5.695172 c 0,0 -0.0031,-0.04928 -0.08831,-0.133028 -0.08518,-0.083748 -0.01515,-0.160916 0.03702,-0.160272 0,0 0.05404,8.4e-4 0.0735,0.083188 0.01123,0.047572 0.02075,0.113344 -0.0222,0.210112 z"
       stroke-miterlimit="2.613"
       id="path1643"
       style="fill:#64b4d1;stroke:#012169;stroke-width:0.017444;stroke-miterlimit:2.61299992" />
    <path
       d="m 22.9446,5.588016 c 0,0 0.0015,-0.060368 -0.0756,-0.123368 0,0 -0.0063,-0.00734 -0.0027,-0.011228 0,0 0.0057,-0.0082 0.01316,-0.00185 0,0 0.08305,0.066444 0.08506,0.13902 0,0 -9.24e-4,0.011732 -0.01044,0.00885 -2.8e-5,-5.6e-5 -0.0085,-7.28e-4 -0.0095,-0.011424 z"
       id="path1645"
       style="fill:#ffffff;stroke-width:0.028" />
    <path
       d="m 22.842176,5.658128 c 0,0 -0.02226,-0.040152 -0.127456,-0.077476 -0.105196,-0.037324 -0.07678,-0.12922 -0.03251,-0.148876 0,0 0.04595,-0.020216 0.09512,0.041356 0.02842,0.035616 0.06261,0.087136 0.06485,0.184996 z"
       stroke-miterlimit="2.613"
       id="path1647"
       style="fill:#64b4d1;stroke:#012169;stroke-width:0.017444;stroke-miterlimit:2.61299992" />
    <path
       d="m 22.796088,5.58432 c 0,0 -0.02391,-0.055356 -0.120232,-0.079604 0,0 -0.0088,-0.00398 -0.0071,-0.00904 0,0 0.0017,-0.00988 0.01114,-0.00728 0,0 0.103124,0.024808 0.135352,0.08974 0,0 0.0041,0.011032 -0.0058,0.01246 0,2.8e-5 -0.008,0.00302 -0.01336,-0.00627 z"
       id="path1649"
       style="fill:#ffffff;stroke-width:0.028" />
    <path
       d="m 22.908088,5.698336 c 0,0 -0.04906,0.013776 -0.1617,-0.040572 -0.112644,-0.054348 -0.16198,0.040236 -0.14224,0.090832 0,0 0.02064,0.05236 0.107828,0.043176 0.05034,-0.00532 0.117768,-0.018508 0.196112,-0.093436 z"
       stroke-miterlimit="2.613"
       id="path1651"
       style="fill:#64b4d1;stroke:#012169;stroke-width:0.017444;stroke-miterlimit:2.61299992" />
    <path
       d="m 22.646148,5.734232 c 0,0 0.05107,0.0315 0.143752,-0.00434 0,0 0.0094,-0.00182 0.01098,0.00328 0,0 0.0042,0.0091 -0.005,0.012404 0,0 -0.09859,0.039312 -0.161924,0.00479 0,0 -0.0096,-0.00666 -0.0024,-0.013552 2.8e-5,0 0.0049,-0.00706 0.01456,-0.00258 z"
       id="path1653"
       style="fill:#ffffff;stroke-width:0.028" />
    <path
       d="m 22.74328,5.342316 c 0,0 0.05625,0.027272 0.04318,0.09324"
       stroke-miterlimit="2.613"
       id="path1655"
       style="fill:none;stroke:#000000;stroke-width:0.0232596;stroke-miterlimit:2.61299992" />
    <path
       d="m 22.991864,5.351556 c 0,0 0.02201,0.069664 -0.0023,0.107184"
       stroke-miterlimit="10"
       id="path1657"
       style="fill:none;stroke:#000000;stroke-width:0.0232596;stroke-miterlimit:10" />
    <path
       d="m 19.110784,5.739636 c 0,0 -0.02993,-0.04074 -0.0177,-0.162988 0.01224,-0.122248 -0.09391,-0.136304 -0.134736,-0.101164 0,0 -0.0422,0.03654 -0.0034,0.114072 0.0224,0.044744 0.05813,0.102676 0.15582,0.15008 z"
       stroke-miterlimit="2.613"
       id="path1659"
       style="fill:#64b4d1;stroke:#012169;stroke-width:0.017444;stroke-miterlimit:2.61299992" />
    <path
       d="m 19.070856,5.648356 c 0,0 -0.03979,-0.042784 -0.0208,-0.13566 0,0 1.4e-4,-0.00916 -0.0051,-0.00977 0,0 -0.0097,-0.00244 -0.01128,0.00672 0,0 -0.02136,0.099008 0.02355,0.152796 0,0 0.0082,0.00795 0.01369,0 -2.8e-5,-2.8e-5 0.006,-0.00571 -2.8e-5,-0.014084 z"
       id="path1661"
       style="fill:#ffffff;stroke-width:0.028" />
    <path
       d="m 19.144664,5.695172 c 0,0 0.0031,-0.04928 0.08831,-0.133028 0.08518,-0.083748 0.01515,-0.160916 -0.03702,-0.160272 0,0 -0.05404,8.4e-4 -0.0735,0.083188 -0.01123,0.047572 -0.02075,0.113344 0.0222,0.210112 z"
       stroke-miterlimit="2.613"
       id="path1663"
       style="fill:#64b4d1;stroke:#012169;stroke-width:0.017444;stroke-miterlimit:2.61299992" />
    <path
       d="m 19.157936,5.588016 c 0,0 -0.0015,-0.060368 0.0756,-0.123368 0,0 0.0063,-0.00734 0.0027,-0.011228 0,0 -0.0057,-0.0082 -0.01316,-0.00185 0,0 -0.08305,0.066444 -0.08506,0.13902 0,0 9.24e-4,0.011732 0.01044,0.00885 0,-5.6e-5 0.0085,-7.28e-4 0.0095,-0.011424 z"
       id="path1665"
       style="fill:#ffffff;stroke-width:0.028" />
    <path
       d="m 19.260332,5.658128 c 0,0 0.02226,-0.040152 0.127456,-0.077476 0.105196,-0.037324 0.07678,-0.12922 0.03251,-0.148876 0,0 -0.04595,-0.020216 -0.09512,0.041356 -0.02842,0.035616 -0.06261,0.087136 -0.06485,0.184996 z"
       stroke-miterlimit="2.613"
       id="path1667"
       style="fill:#64b4d1;stroke:#012169;stroke-width:0.017444;stroke-miterlimit:2.61299992" />
    <path
       d="m 19.30642,5.58432 c 0,0 0.02391,-0.055356 0.120232,-0.079604 0,0 0.0088,-0.00398 0.0071,-0.00904 0,0 -0.0017,-0.00988 -0.01114,-0.00728 0,0 -0.103124,0.024808 -0.135352,0.08974 0,0 -0.0041,0.011032 0.0058,0.01246 0,2.8e-5 0.008,0.00302 0.01336,-0.00627 z"
       id="path1669"
       style="fill:#ffffff;stroke-width:0.028" />
    <path
       d="m 19.19442,5.698336 c 0,0 0.04906,0.013776 0.1617,-0.040572 0.112644,-0.054348 0.16198,0.040236 0.14224,0.090832 0,0 -0.02064,0.05236 -0.107828,0.043176 -0.05034,-0.00532 -0.117768,-0.018508 -0.196112,-0.093436 z"
       stroke-miterlimit="2.613"
       id="path1671"
       style="fill:#64b4d1;stroke:#012169;stroke-width:0.017444;stroke-miterlimit:2.61299992" />
    <path
       d="m 19.45636,5.734232 c 0,0 -0.05107,0.0315 -0.143752,-0.00434 0,0 -0.0094,-0.00182 -0.01098,0.00328 0,0 -0.0042,0.0091 0.005,0.012404 0,0 0.09859,0.039312 0.161924,0.00479 0,0 0.0096,-0.00666 0.0024,-0.013552 -2.8e-5,0 -0.0048,-0.00706 -0.01456,-0.00258 z"
       id="path1673"
       style="fill:#ffffff;stroke-width:0.028" />
    <path
       d="m 19.359228,5.342316 c 0,0 -0.05625,0.027272 -0.04318,0.09324"
       stroke-miterlimit="2.613"
       id="path1675"
       style="fill:none;stroke:#000000;stroke-width:0.0232596;stroke-miterlimit:2.61299992" />
    <path
       d="m 19.110644,5.351556 c 0,0 -0.02201,0.069664 0.0023,0.107184"
       stroke-miterlimit="10"
       id="path1677"
       style="fill:none;stroke:#000000;stroke-width:0.0232596;stroke-miterlimit:10" />
    <path
       d="m 21.552692,4.711644 c 0,0 0.03564,0.101752 0.02027,0.193956 -0.01375,0.08246 0.005,0.103768 0.0348,0.120092 0.02579,0.014112 0.08554,-0.010584 0.09274,-0.075236 0,0 0.07064,0.137872 -0.06672,0.230888 0,0 -0.09878,0.060704 -0.182504,-0.02044 -0.02951,-0.028588 -0.04253,-0.10752 -0.02814,-0.180768 0,0 0.02162,-0.099288 -0.01439,-0.201208 0,0 0.05625,0.060032 0.04186,0.179732 0,0 -0.02878,0.21476 0.130172,0.204204 0,0 0.1099,-0.00132 0.113176,-0.134568 0,0 -0.04122,0.047488 -0.09223,0.031668 -0.03615,-0.0112 -0.06936,-0.046172 -0.06345,-0.101304 0.0062,-0.05782 0.02226,-0.15862 0.01442,-0.247016 z"
       id="path1679"
       style="stroke-width:0.028" />
    <path
       d="m 21.372568,5.06436 c 0,0 -0.0087,0.169764 -0.163968,0.211092 0,0 0.02181,-0.030772 -0.01308,-0.11522 0,0 -0.03402,-0.049252 -0.03139,-0.125776 0,0 -0.04942,0.038668 0.007,0.140728 0.03402,0.061572 0.0044,0.135464 -0.0061,0.138096 -0.0105,0.00263 0.256424,-0.035196 0.207564,-0.24892 z"
       id="path1681"
       style="stroke-width:0.028" />
    <path
       d="m 21.17108,4.895464 c 0,0 -0.03749,-0.042224 -0.04012,-0.13986 -0.0026,-0.097636 -0.02094,-0.12138 -0.03402,-0.132832 0,0 0.01918,0.084448 0.01394,0.136332 -0.0052,0.051884 0.0035,0.081816 0.01047,0.106428 0,0 -0.08462,0.013188 -0.137816,-0.109956 -0.05085,-0.117712 -0.10206,-0.108192 -0.127344,-0.107324 0,0 0.02948,0.00328 0.08896,0.110824 0.05942,0.107464 0.07591,0.12936 0.225932,0.136388 z"
       id="path1683"
       style="stroke-width:0.028" />
    <path
       d="m 20.775104,4.640384 c 0,0 0.04886,0.116984 0.0506,0.178556 0,0 -0.1134,-0.037828 -0.14392,-0.136332 0,0 -0.12124,0.041328 -0.07675,0.181188 0,0 -0.104664,-0.036932 -0.15176,-0.122276 0,0 0.05844,0.043988 0.112504,0.063336 0,0 -0.0061,-0.112588 0.135184,-0.154812 0,0 0.02103,0.100856 0.09159,0.124908 0,2.8e-5 -0.0052,-0.063308 -0.01744,-0.134568 z"
       id="path1685"
       style="stroke-width:0.028" />
    <path
       d="m 20.961752,4.439848 c 0,0 0.03926,0.057176 0.119504,0.059808 0.03836,0.00126 0.07963,-0.00739 0.119504,-0.059808 0,0 -0.0052,0.0994 -0.119504,0.100268 0,0 -0.119504,0.0044 -0.119504,-0.100268 z"
       id="path1687"
       style="stroke-width:0.028" />
    <path
       d="m 20.467412,5.119324 c 0,0 0.05953,0.054096 0.07196,0.071904 0,0 0.04186,0.040908 0.07781,-0.011984 0,0 0.04584,-0.084588 0.102088,-0.082348 0,0 -0.0399,0.02772 -0.08476,0.107688 0,0 -0.01207,0.029512 -0.04544,0.032816 -0.01562,0.00154 -0.03534,0.00661 -0.06516,-0.024556 0,0 -0.02576,-0.0315 -0.0565,-0.09352 z"
       id="path1689"
       style="stroke-width:0.028" />
    <path
       d="m 21.081256,4.04138 c -0.119504,-5.6e-5 -0.01876,0.092344 -0.01876,0.092344 0.0026,0.14644 -0.114912,0.19152 -0.194936,0.1491 -0.08002,-0.042448 -0.01744,-0.1491 -0.01744,-0.1491 0,0 -0.09027,0.05936 -0.0327,0.145124 0.05757,0.085764 0.20846,0.047488 0.263844,-0.031668 0.05538,0.079156 0.206276,0.117432 0.263844,0.031668 0.05757,-0.085764 -0.0327,-0.145124 -0.0327,-0.145124 0,0 0.06258,0.106652 -0.01744,0.1491 -0.08002,0.04242 -0.197568,-0.00263 -0.194936,-0.1491 -2.8e-5,2.8e-5 0.100716,-0.0924 -0.01876,-0.092344 z"
       id="path1691"
       style="stroke-width:0.028" />
    <path
       d="m 21.153636,3.883068 c 0,0 0.04186,0.07126 0.0327,0.179424 0,0 0.03794,-0.108192 -0.0327,-0.179424 z"
       id="path1693"
       style="stroke-width:0.028" />
    <path
       d="m 20.787312,4.05062 c 0,0 -0.0092,-0.07784 -0.08504,-0.084448 0,0 0.06409,0.0462 0.08504,0.084448 z"
       id="path1695"
       style="stroke-width:0.028" />
    <path
       d="m 21.376068,4.05062 c 0,0 0.0092,-0.07784 0.08504,-0.084448 0,0 -0.06412,0.0462 -0.08504,0.084448 z"
       id="path1697"
       style="stroke-width:0.028" />
    <path
       d="m 20.66694,4.169368 c 0,0 0.06017,0.01848 0.09682,-0.026376 0,0 -0.06936,0.018452 -0.09682,0.026376 z"
       id="path1699"
       style="stroke-width:0.028" />
    <path
       d="m 20.472004,3.691744 c 0,0 0.07,-0.00792 0.14,0.09632 0,0 -0.06936,0.036932 -0.08635,0.05936 0,0 0,-0.0343 0.03402,-0.064652 -2.8e-5,2.8e-5 -0.0131,-0.052752 -0.08767,-0.091028 z"
       id="path1701"
       style="stroke-width:0.028" />
    <path
       d="m 21.64428,3.691744 c 0,0 -0.07,-0.00792 -0.14,0.09632 0,0 0.06936,0.036932 0.08635,0.05936 0,0 0,-0.0343 -0.03402,-0.064652 0,2.8e-5 0.01308,-0.052752 0.08767,-0.091028 z"
       id="path1703"
       style="stroke-width:0.028" />
    <path
       d="m 21.103936,3.769528 c 0,0 0.0628,0.01722 0.141288,-0.02632 0,0 0.09682,-0.051464 0.158312,0 0,0 -0.05365,-0.023884 -0.156996,0.02632 0,0 -0.103376,0.056672 -0.142604,0 z"
       id="path1705"
       style="stroke-width:0.028" />
    <path
       d="m 21.169344,3.83292 c 0,0 0.05365,-0.09408 0.217196,-0.075404 0,0 -0.04449,0.130816 -0.217196,0.075404 z"
       id="path1707"
       style="fill:#ffffff;stroke-width:0.028" />
    <ellipse
       cx="21.282156"
       cy="3.8037446"
       rx="0.032339998"
       ry="0.040991999"
       id="ellipse1709"
       style="fill:#784421;stroke-width:0.028" />
    <ellipse
       cx="21.282156"
       cy="3.8037446"
       rx="0.019207999"
       ry="0.025144"
       id="ellipse1711"
       style="stroke-width:0.028" />
    <path
       d="m 20.8187,3.632384 c 0,0 0.103348,0.00661 0.166152,0.046172 0,0 0.06672,0.039592 0.142604,-0.017164 0,0 0.08252,-0.047488 0.135464,-0.113456 0,0 -0.126308,0.08708 -0.173404,0.100268 0,0 -0.04318,-0.032984 -0.06017,-0.080472 0,0 0.0066,-0.035616 0.07456,-0.101584 0,0 -0.09159,0.02772 -0.1099,0.10556 0,0 0.017,0.047488 0.05233,0.084448 0,0 -0.017,0.00792 -0.06149,-0.019796 0,-2.8e-5 -0.0968,-0.033012 -0.166152,-0.00398 z"
       id="path1713"
       style="stroke-width:0.028" />
    <path
       d="m 21.081256,4.253144 c -0.0894,0.077196 0,0.069272 0,0.069272 0,0 0.0894,0.00792 0,-0.069272 z"
       id="path1715"
       style="stroke-width:0.028" />
    <path
       d="m 21.029512,3.769528 c 0,0 -0.0628,0.01722 -0.141316,-0.02632 0,0 -0.09682,-0.051464 -0.158312,0 0,0 0.05365,-0.023884 0.156996,0.02632 2.8e-5,0 0.103376,0.056672 0.142632,0 z"
       id="path1717"
       style="stroke-width:0.028" />
    <path
       d="m 20.964104,3.83292 c 0,0 -0.05365,-0.09408 -0.217196,-0.075404 0,0 0.04449,0.130816 0.217196,0.075404 z"
       id="path1719"
       style="fill:#ffffff;stroke-width:0.028" />
    <ellipse
       cx="20.851294"
       cy="3.8037446"
       rx="0.032339998"
       ry="0.040991999"
       id="ellipse1721"
       style="fill:#784421;stroke-width:0.028" />
    <ellipse
       cx="20.851294"
       cy="3.8037446"
       rx="0.019207999"
       ry="0.025144"
       id="ellipse1723"
       style="stroke-width:0.028" />
    <path
       d="m 24.240244,2.986592 v 5.928636 c 0,1.583596 -3.165736,2.098124 -3.165736,2.098124 0,0 -3.165736,-0.514528 -3.165736,-2.098124 V 2.986592 Z"
       id="path1725"
       style="fill:none;stroke:#000000;stroke-width:0.056" />
  </g>
</svg>
