<svg xmlns="http://www.w3.org/2000/svg" height="14" width="20">
  <rect fill="#fff" y="0" x="0" height="14" width="20" />
  <rect fill="#f00" y="0" x="0" height="14" width="5.5" />
  <rect fill="#f00" y="0" x="14.5" height="14" width="5.5" />
  <path fill="#f00" d="M 9.9998456,2.78125 9.3175832,4.0537558 C 9.240166,4.192056 9.1014578,4.1792284 8.9627494,4.1019834 L 8.4688096,3.8462118 8.8369506,5.800754 C 8.9143678,6.1578378 8.6659788,6.1578378 8.5433976,6.003441 L 7.6813766,5.0384212 7.541429,5.5284812 C 7.5252906,5.5928366 7.4543328,5.66043 7.3478794,5.6443334 L 6.257844,5.415151 6.5441488,6.456046 c 0.06129,0.2316108 0.109098,0.3275056 -0.061875,0.3885918 L 6.09375,7.0272428 7.9701754,8.55141 c 0.07427,0.05763 0.1117942,0.16134 0.085354,0.255242 L 7.8913022,9.345594 C 8.5373832,9.271124 9.1162818,9.159075 9.76269,9.09007 9.819755,9.08397 9.9152876,9.17815 9.9148958,9.244282 l -0.085605,1.974468 h 0.3141274 l -0.04945,-1.970234 c -3.94e-4,-0.06613 0.08627,-0.164538 0.143339,-0.158446 0.646408,0.069 1.225308,0.18105 1.871388,0.255524 L 11.944469,8.806652 c -0.02644,-0.0939 0.01108,-0.197611 0.08535,-0.255242 L 13.90625,7.0272428 13.517727,6.8446378 C 13.346753,6.7835516 13.394561,6.6876568 13.455851,6.456046 L 13.742157,5.415151 12.652121,5.6443334 C 12.545667,5.66043 12.474709,5.5928366 12.458571,5.5284812 l -0.139948,-0.49006 -0.86202,0.9650198 C 11.334021,6.1578378 11.085632,6.1578378 11.163049,5.800754 l 0.36814,-1.9545422 -0.493938,0.2557716 c -0.138712,0.077245 -0.277417,0.090073 -0.354834,-0.048228" />
</svg>
