<svg xmlns="http://www.w3.org/2000/svg" width="20" height="14">
<rect fill="#de2910" height="14" width="20" />
  <path fill="#ffffff" d="M 10.980469,2.921875 C 10.50526,3.1661035 10.437601,3.6227639 10.708984,4.0449219 11.012888,4.5175572 10.680356,5.2761646 10.269531,5.4609375 9.6539858,5.7380128 9.4940644,6.4340099 9.8789062,6.875 9.6468401,6.7053513 9.4605604,6.4396043 9.3730469,6.1210938 9.2536974,5.6854677 9.3212456,5.216159 9.5605469,4.8359375 l -0.050781,-0.03125 C 9.2614852,5.1996908 9.1906142,5.6846136 9.3144531,6.1367188 9.4023122,6.4567614 9.5797057,6.7183429 9.8066406,6.8964844 7.6179131,5.7718463 8.699193,2.7657172 10.980469,2.921875 Z" />
  <path fill="#de2910" d="m 9.6386719,4.2050781 0.015625,0.2578125 -0.2246094,0.125 0.2480469,0.064453 0.050781,0.2519531 L 9.8671875,4.6875 10.121094,4.71875 9.9589844,4.5195312 10.066406,4.2871094 9.8261719,4.3808594 Z" />
  <path fill="#ffffff" d="m 6.4238281,4.8066406 c 0.085428,0.5274213 0.4990167,0.7350687 0.984375,0.6074219 0.5434143,-0.1429771 1.1641131,0.4076527 1.2128907,0.8554687 0.073111,0.6693127 0.6816708,1.0367196 1.21875,0.8105469 C 9.6073959,7.2468608 9.2987257,7.3412772 8.9707031,7.3261719 8.519517,7.3050641 8.0943046,7.095084 7.8066406,6.75 l -0.046875,0.039063 C 8.0587132,7.1472533 8.4985511,7.3647884 8.9667969,7.3867188 9.2995835,7.402117 9.6056493,7.3129319 9.8457031,7.1503906 8.0996179,8.8899246 5.569844,6.9292897 6.4238281,4.8066406 Z" />
  <path fill="#ffffff" d="m 11.962891,4.9824219 c 0.944841,-0.034881 1.932272,0.5475946 2.21875,1.6894531 -0.379123,-0.3764796 -0.83471,-0.3006643 -1.152344,0.087891 -0.355592,0.4350819 -1.179741,0.3551045 -1.482422,0.021484 -0.455002,-0.5012009 -1.16785,-0.4375654 -1.466797,0.068359 0.08921,-0.2747669 0.285297,-0.5362223 0.5625,-0.71875 0.377424,-0.2481241 0.843737,-0.326891 1.279297,-0.2167969 L 11.9375,5.8554688 C 11.485106,5.741403 11.001085,5.8225922 10.609375,6.0800781 10.330116,6.2638729 10.135506,6.5172966 10.037109,6.7910156 10.225273,5.6069923 11.070451,5.0153684 11.962891,4.9824219 Z" />
  <path fill="#de2910" d="m 12.117188,5.7109375 0.01562,0.2578125 -0.224609,0.125 0.25,0.064453 0.04883,0.2519531 0.138672,-0.2167968 0.255859,0.03125 -0.164062,-0.1992188 0.107422,-0.2324218 -0.238281,0.09375 z" />
  <path fill="#de2910" d="m 7.4394531,6.0996094 0.015625,0.2558594 -0.2246093,0.125 0.25,0.064453 0.048828,0.2519531 0.1386719,-0.2167969 0.2558593,0.03125 -0.1640625,-0.1992187 0.1074219,-0.2324219 -0.2382813,0.09375 z" />
  <path fill="#ffffff" d="m 10.470703,6.9316406 c 2.242511,-0.1383981 3.003022,2.7709016 1.132813,3.9433594 0.240898,-0.476906 0.02824,-0.8843883 -0.439454,-1.0664062 -0.523669,-0.20374 -0.702272,-1.0152887 -0.478515,-1.40625 0.336944,-0.5891457 0.05315,-1.2478216 -0.523438,-1.3730469 0.290492,-0.00164 0.602395,0.1039638 0.863282,0.3125 0.352611,0.282277 0.571672,0.7021271 0.601562,1.1503906 l 0.06055,-0.00391 C 11.656189,8.0227797 11.428428,7.5878918 11.0625,7.2949219 10.804729,7.0887842 10.50955,6.9805389 10.222656,6.96875 c 0.08296,-0.012829 0.168941,-0.032227 0.248047,-0.037109 z" />
  <path fill="#ffffff" d="M 10.023438,7.1679688 C 10.113174,7.44253 10.109206,7.76936 9.9921875,8.0800781 9.8326887,8.5026588 9.5010718,8.8408646 9.0839844,9.0078125 l 0.021484,0.056641 C 9.5385082,8.8908245 9.8832753,8.5401137 10.048828,8.1015625 10.165499,7.7919736 10.175883,7.4762845 10.097656,7.1992188 11.205166,9.3948272 8.5619828,11.189545 6.8085938,9.7226562 7.3365996,9.804392 7.6608684,9.4756574 7.6894531,8.9746094 7.7213981,8.4136093 8.437935,7.9939449 8.8789062,8.0859375 9.5416686,8.2239865 10.079264,7.7531336 10.023438,7.1679688 Z" />
  <path fill="#de2910" d="m 11.451172,8.5351562 0.01563,0.2558594 -0.224609,0.1269532 0.25,0.064453 0.04883,0.2519531 0.138672,-0.2167969 0.255859,0.029297 -0.164063,-0.1972656 0.107422,-0.234375 -0.238281,0.09375 z" />
  <path fill="#de2910" d="m 8.5605469,8.7753906 0.015625,0.2558594 -0.2246094,0.125 0.25,0.064453 0.048828,0.2519531 0.1386719,-0.2167968 0.2558594,0.03125 L 8.8808594,9.0878906 8.9882812,8.8554688 8.75,8.9492188 Z" />
</svg>
