<svg xmlns="http://www.w3.org/2000/svg" viewBox="0 0 20 20" >
<path fill="#cecece" d="m 11.796875,11.437532 c 0.04998,0.454418 -0.155474,1.026277 0.256307,1.354205 0.530572,0.155778 1.176216,0.137637 1.573316,0.613019 0.592772,0.534371 0.519284,1.362332 0.514126,2.083707 0.08048,0.453105 -0.168007,1.012179 -0.71194,0.917789 -2.367404,-0.0078 -4.7363353,0.01561 -7.1027828,-0.01172 C 5.749331,16.275767 5.8679279,15.627446 5.8593748,15.190296 5.822667,14.532277 5.8889563,13.79842 6.4345061,13.3466 6.8477599,12.856243 7.5476369,13.010987 8.0332372,12.720684 8.3222042,12.359606 8.1608617,11.865418 8.2031247,11.437532 5.9506699,10.754247 4.2719714,8.5932903 4.1394346,6.2467933 3.9080504,4.1645295 3.6766661,2.0822656 3.4452819,1.7544189e-6 c 4.3698117,0 8.7396231,0 13.1094351,0 C 16.286532,2.3203585 16.059603,4.6463469 15.764273,6.9630004 15.388608,9.0368172 13.810367,10.815184 11.796875,11.437532 Z" />
<path fill="#bebebe" d="m 15.3125,15.820312 v 3.5469 H 4.6874999 v -3.5469 c 0,-0.32822 0.2577209,-0.58594 0.5859374,-0.58594 h 9.4531257 c 0.328216,0 0.585937,0.25772 0.585937,0.58594 z m 0,0" />
<path fill="#747b7c" d="M 15.898437,20.000002 H 4.1015624 v -1.17188 H 15.898437 Z" />
</svg>
