<svg xmlns="http://www.w3.org/2000/svg" viewBox="0 0 20 20">
<path fill="#cecece" d="m 11.796875,15.020749 c 0.04998,0.454418 -0.155474,1.026277 0.256307,1.354205 0.530572,0.155778 1.176216,0.137637 1.573316,0.613019 0.592772,0.534371 0.519284,1.362332 0.514126,2.083707 0.08048,0.453105 -0.168007,1.012179 -0.71194,0.917789 -2.367404,-0.0078 -4.7363353,0.01561 -7.1027828,-0.01172 C 5.749331,19.858984 5.8679279,19.210663 5.8593748,18.773513 5.822667,18.115494 5.8889563,17.381637 6.4345061,16.929817 6.8477599,16.43946 7.5476369,16.594204 8.0332372,16.303901 8.3222042,15.942823 8.1608617,15.448635 8.2031247,15.020749 5.9506699,14.337464 4.2719714,12.176507 4.1394346,9.8300099 3.9080504,7.7477461 3.6766661,5.6654822 3.4452819,3.5832183 c 4.3698117,0 8.7396231,0 13.1094351,0 -0.268185,2.3203568 -0.495114,4.6463452 -0.790444,6.9629987 -0.375665,2.073817 -1.953906,3.852184 -3.967398,4.474532 z" />
</svg>
