<svg xmlns="http://www.w3.org/2000/svg" viewBox="0 0 20 20" >
<path fill="#ffeed8" d="M 1.7578125,0 C 0.70188778,-0.03297222 -0.13057122,1.0013453 0,2.021099 -0.08274168,3.619581 0.31339695,5.2654693 1.3169241,6.5378057 2.2120083,7.7478956 3.5633675,8.5267375 4.9959742,8.9236131 5.4807006,9.24283 6.2045403,8.7382483 5.9071428,8.1731475 5.6315085,7.7642187 5.0729725,7.764875 4.6528421,7.5728002 2.514161,6.8560033 1.040815,4.6333905 1.171875,2.3871041 1.1781165,1.9501107 1.064646,1.3051035 1.6398034,1.1837904 2.6870726,1.1563518 3.7368917,1.1795488 4.7851562,1.171875 4.3391927,0.78125 3.8932291,0.390625 3.4472656,0 2.8841146,0 2.3209635,0 1.7578125,0 Z M 16.552734,0 c -0.399739,0.390625 -0.799479,0.78125 -1.199218,1.171875 1.002039,0.0077 2.005638,-0.01556 3.006681,0.011915 0.602968,0.1359007 0.449866,0.8193487 0.467928,1.2761193 0.1108,2.286541 -1.456552,4.5186815 -3.653571,5.1713588 -0.417281,0.1819741 -1.077413,0.1884956 -1.142155,0.7586079 -0.05013,0.5896847 0.641233,0.7600693 1.06174,0.5032231 1.666008,-0.4529642 3.18367,-1.5085301 4.038882,-3.0285748 C 19.866444,4.6649722 20.0557,3.2414846 20,1.8605312 20.088205,0.79343042 19.071032,-0.1277017 18.022783,0 17.532766,0 17.04275,0 16.552734,0 Z" />
<path fill="#e0b498" d="m 11.796875,11.437532 c 0.04998,0.454418 -0.155474,1.026277 0.256307,1.354205 0.530572,0.155778 1.176216,0.137637 1.573316,0.613019 0.592772,0.534371 0.519284,1.362332 0.514126,2.083707 0.08048,0.453105 -0.168007,1.012179 -0.71194,0.917789 -2.367404,-0.0078 -4.7363353,0.01561 -7.1027828,-0.01172 C 5.749331,16.275767 5.8679279,15.627446 5.8593748,15.190296 5.822667,14.532277 5.8889563,13.79842 6.4345061,13.3466 6.8477599,12.856243 7.5476369,13.010987 8.0332372,12.720684 8.3222042,12.359606 8.1608617,11.865418 8.2031247,11.437532 5.9506699,10.754247 4.2719714,8.5932903 4.1394346,6.2467933 3.9080504,4.1645295 3.6766661,2.0822656 3.4452819,1.7544189e-6 c 4.3698117,0 8.7396231,0 13.1094351,0 C 16.286532,2.3203585 16.059603,4.6463469 15.764273,6.9630004 15.388608,9.0368172 13.810367,10.815184 11.796875,11.437532 Z" />
<path fill="#c16f5b" d="m 15.3125,15.820312 v 3.5469 H 4.6874999 v -3.5469 c 0,-0.32822 0.2577209,-0.58594 0.5859374,-0.58594 h 9.4531257 c 0.328216,0 0.585937,0.25772 0.585937,0.58594 z m 0,0" />
<path fill="#a55f4f" d="M 15.898437,20.000002 H 4.1015624 v -1.17188 H 15.898437 Z" />
</svg>
